<svg width="512" height="512" viewBox="0 0 512 512" xmlns="http://www.w3.org/2000/svg">
  <defs>
    <linearGradient id="bg" x1="0" y1="0" x2="1" y2="1">
      <stop offset="0" stop-color="#f4f7fc"/>
      <stop offset="1" stop-color="#dbe7fb"/>
    </linearGradient>
  </defs>
  <rect width="512" height="512" rx="112" fill="url(#bg)"/>
  <!-- Guacamaya geométrica (mismo trazo que el logo del header) -->
  <g transform="translate(40,80) scale(7)">
    <polygon points="30,18 34,2 41,17" fill="#FCD116"/>
    <polygon points="38,16 48,3 50,19" fill="#E4002B"/>
    <polygon points="46,19 58,12 53,28" fill="#1E6BE6"/>
    <path d="M31,15 Q47,15 48,32 Q48,49 30,49 Q20,45 20,33 Q20,20 31,15 Z" fill="#0A47A6"/>
    <path d="M30,19 Q18,20 17,30 Q18,40 30,40 Q35,34 35,29 Q35,23 30,19 Z" fill="#EEF3FB"/>
    <path d="M30,21 Q11,19 4,30 Q12,33 19,31 Q25,30 30,27 Z" fill="#171D2B"/>
    <path d="M19,32 Q10,35 17,39 Q25,39 27,34 Z" fill="#2A3346"/>
    <circle cx="29" cy="27" r="3.2" fill="#0C1322"/>
    <circle cx="30.2" cy="25.8" r="1" fill="#fff"/>
  </g>
</svg>
